<?xml version="1.0" encoding="utf-8"?>
<!-- Generator: Adobe Illustrator 21.0.0, SVG Export Plug-In . SVG Version: 6.00 Build 0)  -->
<svg version="1.1" id="circle_check" xmlns="http://www.w3.org/2000/svg" xmlns:xlink="http://www.w3.org/1999/xlink" x="0px"
	 y="0px" viewBox="0 0 96 96" style="enable-background:new 0 0 96 96;" xml:space="preserve">
<style type="text/css">
	.st0{fill:#77BC2F;}
</style>
<path class="st0" d="M48,4C23.7,4,4,23.7,4,48s19.7,44,44,44s44-19.7,44-44S72.3,4,48,4z M48,84c-19.9,0-36-16.1-36-36
	s16.1-36,36-36s36,16.1,36,36S67.9,84,48,84z"/>
<path class="st0" d="M64.3,37.2c-1.6-1.6-4.1-1.6-5.7,0L44.5,51.3l-5.7-5.7c-1.6-1.6-4.1-1.6-5.7,0c-1.6,1.6-1.6,4.1,0,5.7l8.5,8.5
	c1.6,1.6,4.1,1.6,5.7,0l17-17C65.8,41.3,65.8,38.7,64.3,37.2z"/>
</svg>
